# xmcd CD database file
#
# Track frame offsets:
#	150
#	16251
#	32706
#	48871
#	60335
#	82910
#	101728
#	113081
#	140350
#	153783
#	173138
#	185788
#	197500
#	220408
#
# Disc length: 3188 seconds
#
# Revision: 0
# Processed by: cddbd v1.4PL0 Copyright (c) Steve Scherf et al.
# Submitted via: CDex 1.50Beta6
#
DISCID=b00c720e
DTITLE=Ginny Mac - Sweet Sentimental Dream
DYEAR=2003
DGENRE=Country
TTITLE0=Dancin' On The A
TTITLE1=I Stop For Cowboys
TTITLE2=The Little Darlin' Song
TTITLE3=Bud 'n Gin
TTITLE4=Cheek to Cheek
TTITLE5=Sweet Sentimental Dream
TTITLE6=Crazy 'Cause I Love You
TTITLE7=Cowboy John
TTITLE8=Til There's Not a Cow In Texas
TTITLE9=Wayward Wind
TTITLE10=Spadella
TTITLE11=Foolish Heart
TTITLE12=The Look of I Love You
TTITLE13=Star Spangled Spirit
EXTD=YEAR: 2003
EXTT0=
EXTT1=
EXTT2=
EXTT3=
EXTT4=
EXTT5=
EXTT6=
EXTT7=
EXTT8=
EXTT9=
EXTT10=
EXTT11=
EXTT12=
EXTT13=
PLAYORDER=
